<svg xmlns="http://www.w3.org/2000/svg" width="336" height="144" viewBox="0 0 336 144">
  <defs>
    <style>
      .g{fill:none;stroke:#000;stroke-linecap:round;stroke-linejoin:round}
      .f{fill:#000}
      .s{stroke-width:3}
      .m{stroke-width:4}
      .l{stroke-width:5}
    </style>
  </defs>

  <g id="small" class="g s">
    <g transform="translate(0 0)">
      <path d="M14 33 34 15M14 15 34 33"/>
      <circle class="f" cx="24" cy="13" r="3"/>
      <path d="M24 17v14"/>
    </g>
    <g transform="translate(48 0)">
      <path d="M17 35V11"/>
      <path class="f" d="M19 12h19l-7 8 7 8H19Z"/>
      <path d="M12 35h22"/>
    </g>
    <g transform="translate(96 0)">
      <ellipse cx="17" cy="24" rx="8" ry="5"/>
      <ellipse cx="24" cy="24" rx="8" ry="5"/>
      <ellipse cx="31" cy="24" rx="8" ry="5"/>
    </g>
    <g transform="translate(144 0)">
      <path class="f" d="M10 29c3-6 14-8 23-4l5-4 3 4-6 5H14Z"/>
      <circle class="f" cx="22" cy="16" r="3"/>
      <path d="M22 19v9M14 34l4-5M25 34l-2-6M34 34l-3-5"/>
      <path d="M24 20c5 1 8 4 10 8"/>
      <path d="M34 17c-6 4-6 13 0 17"/>
    </g>
    <g transform="translate(192 0)">
      <ellipse cx="22" cy="27" rx="12" ry="5"/>
      <path d="M32 14v22"/>
      <path d="M17 17h18"/>
    </g>
    <g transform="translate(240 0)">
      <ellipse cx="21" cy="28" rx="11" ry="5"/>
      <path d="M12 36 38 10"/>
      <path class="f" d="M31 10h8l-4 7Z"/>
    </g>
    <g transform="translate(288 0)">
      <path d="M10 35 24 11l14 24Z"/>
      <path d="M20 35V24h8v11"/>
    </g>
  </g>

  <g id="medium" class="g m" transform="translate(0 48)">
    <g transform="translate(0 0)">
      <path d="M13 34 35 14M13 14 35 34"/>
      <circle class="f" cx="24" cy="12" r="3.5"/>
      <path d="M24 17v16"/>
    </g>
    <g transform="translate(48 0)">
      <path d="M16 36V10"/>
      <path class="f" d="M19 11h20l-8 8 8 8H19Z"/>
      <path d="M11 36h24"/>
    </g>
    <g transform="translate(96 0)">
      <ellipse cx="16" cy="24" rx="9" ry="5.5"/>
      <ellipse cx="24" cy="24" rx="9" ry="5.5"/>
      <ellipse cx="32" cy="24" rx="9" ry="5.5"/>
    </g>
    <g transform="translate(144 0)">
      <path class="f" d="M8 30c4-7 16-9 25-4l5-5 4 4-7 7H14Z"/>
      <circle class="f" cx="22" cy="15" r="3.5"/>
      <path d="M22 19v10M13 36l5-6M25 36l-2-7M36 36l-4-6"/>
      <path d="M24 20c6 1 10 5 12 10"/>
      <path d="M36 15c-7 5-7 16 0 22"/>
    </g>
    <g transform="translate(192 0)">
      <ellipse cx="22" cy="28" rx="13" ry="5.5"/>
      <path d="M33 12v25"/>
      <path d="M16 16h19"/>
    </g>
    <g transform="translate(240 0)">
      <ellipse cx="21" cy="29" rx="12" ry="5.5"/>
      <path d="M10 38 40 8"/>
      <path class="f" d="M32 8h9l-5 8Z"/>
    </g>
    <g transform="translate(288 0)">
      <path d="M9 36 24 9l15 27Z"/>
      <path d="M19 36V23h10v13"/>
    </g>
  </g>

  <g id="large" class="g l" transform="translate(0 96)">
    <g transform="translate(0 0)">
      <path d="M12 35 36 13M12 13 36 35"/>
      <circle class="f" cx="24" cy="11" r="4"/>
      <path d="M24 17v18"/>
    </g>
    <g transform="translate(48 0)">
      <path d="M15 38V8"/>
      <path class="f" d="M19 9h22l-9 9 9 9H19Z"/>
      <path d="M10 38h26"/>
    </g>
    <g transform="translate(96 0)">
      <ellipse cx="15" cy="24" rx="10" ry="6"/>
      <ellipse cx="24" cy="24" rx="10" ry="6"/>
      <ellipse cx="33" cy="24" rx="10" ry="6"/>
    </g>
    <g transform="translate(144 0)">
      <path class="f" d="M7 31c4-8 17-10 27-4l5-6 4 5-8 8H14Z"/>
      <circle class="f" cx="22" cy="14" r="4"/>
      <path d="M22 19v12M12 38l6-7M25 38l-2-8M37 38l-5-7"/>
      <path d="M24 20c7 1 11 6 13 12"/>
      <path d="M37 13c-8 6-8 19 0 25"/>
    </g>
    <g transform="translate(192 0)">
      <ellipse cx="22" cy="29" rx="14" ry="6"/>
      <path d="M34 10v29"/>
      <path d="M15 15h21"/>
    </g>
    <g transform="translate(240 0)">
      <ellipse cx="21" cy="30" rx="13" ry="6"/>
      <path d="M8 40 42 6"/>
      <path class="f" d="M33 6h10l-5 9Z"/>
    </g>
    <g transform="translate(288 0)">
      <path d="M8 38 24 7l16 31Z"/>
      <path d="M18 38V22h12v16"/>
    </g>
  </g>
</svg>
